<mxfile host="app.diagrams.net" modified="2023-04-04T07:22:42.821Z" agent="Mozilla/5.0 (Macintosh; Intel Mac OS X 10_15_7) AppleWebKit/537.36 (KHTML, like Gecko) Chrome/111.0.0.0 Safari/537.36" etag="fd5B2ksA_Y8CaOJGpIIc" version="21.1.1" type="github">
  <diagram name="Page-1" id="97916047-d0de-89f5-080d-49f4d83e522f">
    <mxGraphModel dx="2219" dy="976" grid="1" gridSize="10" guides="1" tooltips="1" connect="1" arrows="1" fold="1" page="1" pageScale="1.5" pageWidth="1169" pageHeight="827" background="none" math="0" shadow="0">
      <root>
        <mxCell id="0" />
        <mxCell id="1" parent="0" />
        <mxCell id="EIRAZqwRXUZRjYP6rfTx-97" style="edgeStyle=orthogonalEdgeStyle;rounded=0;orthogonalLoop=1;jettySize=auto;html=1;entryX=0.5;entryY=0;entryDx=0;entryDy=0;exitX=0.5;exitY=1;exitDx=0;exitDy=0;" edge="1" parent="1" source="EIRAZqwRXUZRjYP6rfTx-56" target="EIRAZqwRXUZRjYP6rfTx-60">
          <mxGeometry relative="1" as="geometry">
            <Array as="points">
              <mxPoint x="805" y="120" />
              <mxPoint x="605" y="120" />
            </Array>
          </mxGeometry>
        </mxCell>
        <mxCell id="EIRAZqwRXUZRjYP6rfTx-106" style="edgeStyle=orthogonalEdgeStyle;rounded=0;orthogonalLoop=1;jettySize=auto;html=1;exitX=0.5;exitY=1;exitDx=0;exitDy=0;" edge="1" parent="1" source="EIRAZqwRXUZRjYP6rfTx-56" target="EIRAZqwRXUZRjYP6rfTx-61">
          <mxGeometry relative="1" as="geometry">
            <Array as="points">
              <mxPoint x="805" y="120" />
              <mxPoint x="1035" y="120" />
            </Array>
          </mxGeometry>
        </mxCell>
        <mxCell id="EIRAZqwRXUZRjYP6rfTx-117" style="edgeStyle=orthogonalEdgeStyle;rounded=0;orthogonalLoop=1;jettySize=auto;html=1;entryX=0.5;entryY=0;entryDx=0;entryDy=0;exitX=0.5;exitY=1;exitDx=0;exitDy=0;" edge="1" parent="1" source="EIRAZqwRXUZRjYP6rfTx-56" target="EIRAZqwRXUZRjYP6rfTx-62">
          <mxGeometry relative="1" as="geometry">
            <Array as="points">
              <mxPoint x="805" y="120" />
              <mxPoint x="1475" y="120" />
            </Array>
          </mxGeometry>
        </mxCell>
        <mxCell id="EIRAZqwRXUZRjYP6rfTx-123" style="edgeStyle=orthogonalEdgeStyle;rounded=0;orthogonalLoop=1;jettySize=auto;html=1;" edge="1" parent="1" source="EIRAZqwRXUZRjYP6rfTx-56" target="EIRAZqwRXUZRjYP6rfTx-59">
          <mxGeometry relative="1" as="geometry">
            <Array as="points">
              <mxPoint x="805" y="120" />
              <mxPoint x="135" y="120" />
            </Array>
          </mxGeometry>
        </mxCell>
        <mxCell id="EIRAZqwRXUZRjYP6rfTx-127" style="edgeStyle=orthogonalEdgeStyle;rounded=0;orthogonalLoop=1;jettySize=auto;html=1;" edge="1" parent="1" source="EIRAZqwRXUZRjYP6rfTx-56" target="EIRAZqwRXUZRjYP6rfTx-116">
          <mxGeometry relative="1" as="geometry">
            <Array as="points">
              <mxPoint x="805" y="120" />
            </Array>
          </mxGeometry>
        </mxCell>
        <mxCell id="EIRAZqwRXUZRjYP6rfTx-129" style="edgeStyle=orthogonalEdgeStyle;rounded=0;orthogonalLoop=1;jettySize=auto;html=1;" edge="1" parent="1" source="EIRAZqwRXUZRjYP6rfTx-56" target="EIRAZqwRXUZRjYP6rfTx-128">
          <mxGeometry relative="1" as="geometry">
            <Array as="points">
              <mxPoint x="805" y="120" />
              <mxPoint x="877" y="120" />
            </Array>
          </mxGeometry>
        </mxCell>
        <mxCell id="EIRAZqwRXUZRjYP6rfTx-56" value="/test-center&lt;br&gt;“ip:port”" style="rounded=1;whiteSpace=wrap;html=1;" vertex="1" parent="1">
          <mxGeometry x="770" y="10" width="70" height="60" as="geometry" />
        </mxCell>
        <mxCell id="EIRAZqwRXUZRjYP6rfTx-93" style="edgeStyle=orthogonalEdgeStyle;rounded=0;orthogonalLoop=1;jettySize=auto;html=1;entryX=0.5;entryY=0;entryDx=0;entryDy=0;" edge="1" parent="1" source="EIRAZqwRXUZRjYP6rfTx-59" target="EIRAZqwRXUZRjYP6rfTx-68">
          <mxGeometry relative="1" as="geometry">
            <Array as="points">
              <mxPoint x="135" y="290" />
              <mxPoint x="45" y="290" />
            </Array>
          </mxGeometry>
        </mxCell>
        <mxCell id="EIRAZqwRXUZRjYP6rfTx-94" style="edgeStyle=orthogonalEdgeStyle;rounded=0;orthogonalLoop=1;jettySize=auto;html=1;entryX=0.5;entryY=0;entryDx=0;entryDy=0;" edge="1" parent="1" source="EIRAZqwRXUZRjYP6rfTx-59" target="EIRAZqwRXUZRjYP6rfTx-70">
          <mxGeometry relative="1" as="geometry">
            <Array as="points">
              <mxPoint x="135" y="290" />
            </Array>
          </mxGeometry>
        </mxCell>
        <mxCell id="EIRAZqwRXUZRjYP6rfTx-59" value="/scrip-controller" style="rounded=1;whiteSpace=wrap;html=1;" vertex="1" parent="1">
          <mxGeometry x="100" y="210" width="70" height="60" as="geometry" />
        </mxCell>
        <mxCell id="EIRAZqwRXUZRjYP6rfTx-98" style="edgeStyle=orthogonalEdgeStyle;rounded=0;orthogonalLoop=1;jettySize=auto;html=1;entryX=0.5;entryY=0;entryDx=0;entryDy=0;" edge="1" parent="1" source="EIRAZqwRXUZRjYP6rfTx-60" target="EIRAZqwRXUZRjYP6rfTx-77">
          <mxGeometry relative="1" as="geometry">
            <Array as="points">
              <mxPoint x="605" y="290" />
              <mxPoint x="530" y="290" />
            </Array>
          </mxGeometry>
        </mxCell>
        <mxCell id="EIRAZqwRXUZRjYP6rfTx-100" style="edgeStyle=orthogonalEdgeStyle;rounded=0;orthogonalLoop=1;jettySize=auto;html=1;entryX=0.5;entryY=0;entryDx=0;entryDy=0;" edge="1" parent="1" source="EIRAZqwRXUZRjYP6rfTx-60" target="EIRAZqwRXUZRjYP6rfTx-86">
          <mxGeometry relative="1" as="geometry">
            <Array as="points">
              <mxPoint x="605" y="290" />
              <mxPoint x="665" y="290" />
            </Array>
          </mxGeometry>
        </mxCell>
        <mxCell id="EIRAZqwRXUZRjYP6rfTx-101" style="edgeStyle=orthogonalEdgeStyle;rounded=0;orthogonalLoop=1;jettySize=auto;html=1;entryX=0.5;entryY=0;entryDx=0;entryDy=0;" edge="1" parent="1" source="EIRAZqwRXUZRjYP6rfTx-60" target="EIRAZqwRXUZRjYP6rfTx-83">
          <mxGeometry relative="1" as="geometry">
            <Array as="points">
              <mxPoint x="605" y="290" />
              <mxPoint x="405" y="290" />
            </Array>
          </mxGeometry>
        </mxCell>
        <mxCell id="EIRAZqwRXUZRjYP6rfTx-102" style="edgeStyle=orthogonalEdgeStyle;rounded=0;orthogonalLoop=1;jettySize=auto;html=1;entryX=0.5;entryY=0;entryDx=0;entryDy=0;" edge="1" parent="1" source="EIRAZqwRXUZRjYP6rfTx-60" target="EIRAZqwRXUZRjYP6rfTx-89">
          <mxGeometry relative="1" as="geometry">
            <Array as="points">
              <mxPoint x="605" y="290" />
              <mxPoint x="745" y="290" />
            </Array>
          </mxGeometry>
        </mxCell>
        <mxCell id="EIRAZqwRXUZRjYP6rfTx-60" value="/stress-tester" style="rounded=1;whiteSpace=wrap;html=1;" vertex="1" parent="1">
          <mxGeometry x="570" y="210" width="70" height="60" as="geometry" />
        </mxCell>
        <mxCell id="EIRAZqwRXUZRjYP6rfTx-107" style="edgeStyle=orthogonalEdgeStyle;rounded=0;orthogonalLoop=1;jettySize=auto;html=1;" edge="1" parent="1" source="EIRAZqwRXUZRjYP6rfTx-61" target="EIRAZqwRXUZRjYP6rfTx-85">
          <mxGeometry relative="1" as="geometry">
            <Array as="points">
              <mxPoint x="1035" y="290" />
            </Array>
          </mxGeometry>
        </mxCell>
        <mxCell id="EIRAZqwRXUZRjYP6rfTx-108" style="edgeStyle=orthogonalEdgeStyle;rounded=0;orthogonalLoop=1;jettySize=auto;html=1;entryX=0.5;entryY=0;entryDx=0;entryDy=0;" edge="1" parent="1" source="EIRAZqwRXUZRjYP6rfTx-61" target="EIRAZqwRXUZRjYP6rfTx-103">
          <mxGeometry relative="1" as="geometry">
            <Array as="points">
              <mxPoint x="1035" y="290" />
            </Array>
          </mxGeometry>
        </mxCell>
        <mxCell id="EIRAZqwRXUZRjYP6rfTx-61" value="/data-manager" style="rounded=1;whiteSpace=wrap;html=1;" vertex="1" parent="1">
          <mxGeometry x="1000" y="210" width="70" height="60" as="geometry" />
        </mxCell>
        <mxCell id="EIRAZqwRXUZRjYP6rfTx-119" style="edgeStyle=orthogonalEdgeStyle;rounded=0;orthogonalLoop=1;jettySize=auto;html=1;entryX=0.5;entryY=0;entryDx=0;entryDy=0;" edge="1" parent="1" source="EIRAZqwRXUZRjYP6rfTx-62" target="EIRAZqwRXUZRjYP6rfTx-115">
          <mxGeometry relative="1" as="geometry">
            <Array as="points">
              <mxPoint x="1475" y="290" />
              <mxPoint x="1585" y="290" />
            </Array>
          </mxGeometry>
        </mxCell>
        <mxCell id="EIRAZqwRXUZRjYP6rfTx-120" style="edgeStyle=orthogonalEdgeStyle;rounded=0;orthogonalLoop=1;jettySize=auto;html=1;" edge="1" parent="1" source="EIRAZqwRXUZRjYP6rfTx-62" target="EIRAZqwRXUZRjYP6rfTx-90">
          <mxGeometry relative="1" as="geometry">
            <Array as="points">
              <mxPoint x="1475" y="290" />
              <mxPoint x="1385" y="290" />
            </Array>
          </mxGeometry>
        </mxCell>
        <mxCell id="EIRAZqwRXUZRjYP6rfTx-62" value="/mock-service" style="rounded=1;whiteSpace=wrap;html=1;" vertex="1" parent="1">
          <mxGeometry x="1440" y="210" width="70" height="60" as="geometry" />
        </mxCell>
        <mxCell id="EIRAZqwRXUZRjYP6rfTx-68" value="/service&lt;br&gt;&quot;ip:port&quot;" style="rounded=1;whiteSpace=wrap;html=1;" vertex="1" parent="1">
          <mxGeometry x="10" y="310" width="70" height="60" as="geometry" />
        </mxCell>
        <mxCell id="EIRAZqwRXUZRjYP6rfTx-95" style="edgeStyle=orthogonalEdgeStyle;rounded=0;orthogonalLoop=1;jettySize=auto;html=1;entryX=0.5;entryY=0;entryDx=0;entryDy=0;" edge="1" parent="1" source="EIRAZqwRXUZRjYP6rfTx-70" target="EIRAZqwRXUZRjYP6rfTx-74">
          <mxGeometry relative="1" as="geometry">
            <Array as="points">
              <mxPoint x="235" y="390" />
              <mxPoint x="155" y="390" />
            </Array>
          </mxGeometry>
        </mxCell>
        <mxCell id="EIRAZqwRXUZRjYP6rfTx-96" style="edgeStyle=orthogonalEdgeStyle;rounded=0;orthogonalLoop=1;jettySize=auto;html=1;entryX=0.5;entryY=0;entryDx=0;entryDy=0;" edge="1" parent="1" source="EIRAZqwRXUZRjYP6rfTx-70" target="EIRAZqwRXUZRjYP6rfTx-72">
          <mxGeometry relative="1" as="geometry">
            <Array as="points">
              <mxPoint x="235" y="390" />
              <mxPoint x="318" y="390" />
            </Array>
          </mxGeometry>
        </mxCell>
        <mxCell id="EIRAZqwRXUZRjYP6rfTx-70" value="/test" style="rounded=1;whiteSpace=wrap;html=1;" vertex="1" parent="1">
          <mxGeometry x="200" y="310" width="70" height="60" as="geometry" />
        </mxCell>
        <mxCell id="EIRAZqwRXUZRjYP6rfTx-72" value="/diff&lt;br&gt;配置" style="rounded=1;whiteSpace=wrap;html=1;" vertex="1" parent="1">
          <mxGeometry x="280" y="420" width="75" height="60" as="geometry" />
        </mxCell>
        <mxCell id="EIRAZqwRXUZRjYP6rfTx-74" value="/api&lt;br&gt;&quot;ip:port&quot;" style="rounded=1;whiteSpace=wrap;html=1;" vertex="1" parent="1">
          <mxGeometry x="120" y="420" width="70" height="60" as="geometry" />
        </mxCell>
        <mxCell id="EIRAZqwRXUZRjYP6rfTx-104" style="edgeStyle=orthogonalEdgeStyle;rounded=0;orthogonalLoop=1;jettySize=auto;html=1;entryX=0.5;entryY=0;entryDx=0;entryDy=0;" edge="1" parent="1" source="EIRAZqwRXUZRjYP6rfTx-77" target="EIRAZqwRXUZRjYP6rfTx-80">
          <mxGeometry relative="1" as="geometry">
            <Array as="points">
              <mxPoint x="530" y="390" />
              <mxPoint x="475" y="390" />
            </Array>
          </mxGeometry>
        </mxCell>
        <mxCell id="EIRAZqwRXUZRjYP6rfTx-105" style="edgeStyle=orthogonalEdgeStyle;rounded=0;orthogonalLoop=1;jettySize=auto;html=1;entryX=0.5;entryY=0;entryDx=0;entryDy=0;" edge="1" parent="1" source="EIRAZqwRXUZRjYP6rfTx-77" target="EIRAZqwRXUZRjYP6rfTx-81">
          <mxGeometry relative="1" as="geometry">
            <Array as="points">
              <mxPoint x="530" y="390" />
              <mxPoint x="585" y="390" />
            </Array>
          </mxGeometry>
        </mxCell>
        <mxCell id="EIRAZqwRXUZRjYP6rfTx-77" value="/instance" style="rounded=1;whiteSpace=wrap;html=1;" vertex="1" parent="1">
          <mxGeometry x="495" y="310" width="70" height="60" as="geometry" />
        </mxCell>
        <mxCell id="EIRAZqwRXUZRjYP6rfTx-80" value="/instance1&lt;br&gt;信息" style="rounded=1;whiteSpace=wrap;html=1;" vertex="1" parent="1">
          <mxGeometry x="440" y="420" width="70" height="60" as="geometry" />
        </mxCell>
        <mxCell id="EIRAZqwRXUZRjYP6rfTx-81" value="/instance2&lt;br&gt;信息" style="rounded=1;whiteSpace=wrap;html=1;" vertex="1" parent="1">
          <mxGeometry x="550" y="420" width="70" height="60" as="geometry" />
        </mxCell>
        <mxCell id="EIRAZqwRXUZRjYP6rfTx-83" value="/master" style="rounded=1;whiteSpace=wrap;html=1;" vertex="1" parent="1">
          <mxGeometry x="370" y="310" width="70" height="60" as="geometry" />
        </mxCell>
        <mxCell id="EIRAZqwRXUZRjYP6rfTx-85" value="/service&lt;br&gt;&quot;ip:port&quot;" style="rounded=1;whiteSpace=wrap;html=1;" vertex="1" parent="1">
          <mxGeometry x="900" y="310" width="70" height="60" as="geometry" />
        </mxCell>
        <mxCell id="EIRAZqwRXUZRjYP6rfTx-86" value="/target&lt;br&gt;信息" style="rounded=1;whiteSpace=wrap;html=1;" vertex="1" parent="1">
          <mxGeometry x="630" y="310" width="70" height="60" as="geometry" />
        </mxCell>
        <mxCell id="EIRAZqwRXUZRjYP6rfTx-87" value="/eb" style="rounded=1;whiteSpace=wrap;html=1;" vertex="1" parent="1">
          <mxGeometry x="1030" y="420" width="70" height="60" as="geometry" />
        </mxCell>
        <mxCell id="EIRAZqwRXUZRjYP6rfTx-88" value="/ti" style="rounded=1;whiteSpace=wrap;html=1;" vertex="1" parent="1">
          <mxGeometry x="1190" y="420" width="70" height="60" as="geometry" />
        </mxCell>
        <mxCell id="EIRAZqwRXUZRjYP6rfTx-89" value="/task&lt;br&gt;配置信息" style="rounded=1;whiteSpace=wrap;html=1;" vertex="1" parent="1">
          <mxGeometry x="710" y="310" width="70" height="60" as="geometry" />
        </mxCell>
        <mxCell id="EIRAZqwRXUZRjYP6rfTx-90" value="/service&lt;br&gt;&quot;ip:port&quot;" style="rounded=1;whiteSpace=wrap;html=1;" vertex="1" parent="1">
          <mxGeometry x="1350" y="310" width="70" height="60" as="geometry" />
        </mxCell>
        <mxCell id="EIRAZqwRXUZRjYP6rfTx-109" style="edgeStyle=orthogonalEdgeStyle;rounded=0;orthogonalLoop=1;jettySize=auto;html=1;entryX=0.5;entryY=0;entryDx=0;entryDy=0;" edge="1" parent="1" source="EIRAZqwRXUZRjYP6rfTx-103" target="EIRAZqwRXUZRjYP6rfTx-87">
          <mxGeometry relative="1" as="geometry">
            <Array as="points">
              <mxPoint x="1145" y="390" />
              <mxPoint x="1065" y="390" />
            </Array>
          </mxGeometry>
        </mxCell>
        <mxCell id="EIRAZqwRXUZRjYP6rfTx-110" style="edgeStyle=orthogonalEdgeStyle;rounded=0;orthogonalLoop=1;jettySize=auto;html=1;entryX=0.5;entryY=0;entryDx=0;entryDy=0;" edge="1" parent="1" source="EIRAZqwRXUZRjYP6rfTx-103" target="EIRAZqwRXUZRjYP6rfTx-88">
          <mxGeometry relative="1" as="geometry">
            <Array as="points">
              <mxPoint x="1145" y="390" />
              <mxPoint x="1225" y="390" />
            </Array>
          </mxGeometry>
        </mxCell>
        <mxCell id="EIRAZqwRXUZRjYP6rfTx-103" value="/task&lt;br&gt;配置信息" style="rounded=1;whiteSpace=wrap;html=1;" vertex="1" parent="1">
          <mxGeometry x="1110" y="310" width="70" height="60" as="geometry" />
        </mxCell>
        <mxCell id="EIRAZqwRXUZRjYP6rfTx-111" value="/eb" style="rounded=1;whiteSpace=wrap;html=1;" vertex="1" parent="1">
          <mxGeometry x="1470" y="420" width="70" height="60" as="geometry" />
        </mxCell>
        <mxCell id="EIRAZqwRXUZRjYP6rfTx-112" value="/ti" style="rounded=1;whiteSpace=wrap;html=1;" vertex="1" parent="1">
          <mxGeometry x="1630" y="420" width="70" height="60" as="geometry" />
        </mxCell>
        <mxCell id="EIRAZqwRXUZRjYP6rfTx-113" style="edgeStyle=orthogonalEdgeStyle;rounded=0;orthogonalLoop=1;jettySize=auto;html=1;entryX=0.5;entryY=0;entryDx=0;entryDy=0;" edge="1" parent="1" source="EIRAZqwRXUZRjYP6rfTx-115" target="EIRAZqwRXUZRjYP6rfTx-111">
          <mxGeometry relative="1" as="geometry">
            <Array as="points">
              <mxPoint x="1585" y="390" />
              <mxPoint x="1505" y="390" />
            </Array>
          </mxGeometry>
        </mxCell>
        <mxCell id="EIRAZqwRXUZRjYP6rfTx-114" style="edgeStyle=orthogonalEdgeStyle;rounded=0;orthogonalLoop=1;jettySize=auto;html=1;entryX=0.5;entryY=0;entryDx=0;entryDy=0;" edge="1" parent="1" source="EIRAZqwRXUZRjYP6rfTx-115" target="EIRAZqwRXUZRjYP6rfTx-112">
          <mxGeometry relative="1" as="geometry">
            <Array as="points">
              <mxPoint x="1585" y="390" />
              <mxPoint x="1665" y="390" />
            </Array>
          </mxGeometry>
        </mxCell>
        <mxCell id="EIRAZqwRXUZRjYP6rfTx-115" value="/task&lt;br&gt;配置信息" style="rounded=1;whiteSpace=wrap;html=1;" vertex="1" parent="1">
          <mxGeometry x="1550" y="310" width="70" height="60" as="geometry" />
        </mxCell>
        <mxCell id="EIRAZqwRXUZRjYP6rfTx-116" value="/redis" style="rounded=1;whiteSpace=wrap;html=1;" vertex="1" parent="1">
          <mxGeometry x="710" y="210" width="70" height="60" as="geometry" />
        </mxCell>
        <mxCell id="EIRAZqwRXUZRjYP6rfTx-128" value="/mysql" style="rounded=1;whiteSpace=wrap;html=1;" vertex="1" parent="1">
          <mxGeometry x="842" y="210" width="70" height="60" as="geometry" />
        </mxCell>
      </root>
    </mxGraphModel>
  </diagram>
</mxfile>
